<?xml version="1.0" standalone="no"?>
<!DOCTYPE svg PUBLIC "-//W3C//DTD SVG 20010904//EN"
 "http://www.w3.org/TR/2001/REC-SVG-20010904/DTD/svg10.dtd">
<svg version="1.0" xmlns="http://www.w3.org/2000/svg"
 width="200.000000pt" height="231.000000pt" viewBox="0 0 200.000000 231.000000"
 preserveAspectRatio="xMidYMid meet">

<g transform="translate(0.000000,231.000000) scale(0.100000,-0.100000)"
fill="#000000" stroke="none">
<path d="M780 2184 c-118 -69 -221 -129 -228 -133 -20 -11 23 -95 44 -87 7 3
100 55 206 116 105 60 195 110 199 110 4 0 98 -52 208 -116 110 -63 204 -113
208 -111 11 7 47 76 42 81 -6 6 -458 266 -461 265 -2 0 -100 -56 -218 -125z"/>
<path d="M860 1980 c-69 -44 -129 -81 -135 -83 -6 -2 -5 -13 2 -30 l12 -26 71
40 c39 23 73 40 75 38 9 -10 47 -421 39 -429 -5 -5 -49 -31 -97 -59 l-88 -51
-166 123 c-92 68 -168 127 -170 133 -2 5 24 24 57 42 70 39 76 46 58 71 -12
17 -21 14 -162 -62 l-149 -80 7 -105 c3 -58 6 -134 6 -169 0 -64 0 -64 28 -61
26 3 27 5 32 84 l5 80 193 -84 193 -85 -3 -115 -3 -114 -189 -84 c-104 -46
-190 -84 -192 -84 -2 0 -4 36 -4 80 l0 80 -28 0 -29 0 -7 -160 c-4 -89 -4
-165 -1 -170 3 -4 69 -43 147 -85 131 -70 143 -75 155 -59 7 10 13 21 13 25 0
4 -29 24 -65 45 -36 21 -65 41 -65 45 0 9 332 252 345 252 18 0 176 -95 182
-109 5 -13 -35 -415 -42 -422 -2 -2 -36 13 -74 35 -61 32 -73 36 -81 23 -5 -8
-10 -19 -10 -25 0 -11 262 -175 280 -175 19 0 279 164 280 176 0 6 -7 17 -14
24 -12 9 -28 4 -81 -25 -36 -21 -68 -36 -70 -33 -2 2 -13 86 -24 188 -12 102
-23 196 -25 210 -4 23 4 31 87 80 51 29 96 53 102 53 13 0 345 -243 345 -252
0 -4 -29 -24 -65 -44 -36 -21 -65 -41 -65 -45 0 -5 6 -16 13 -25 11 -15 27 -8
157 62 l145 78 -4 164 c-2 90 -6 167 -10 171 -3 4 -16 5 -28 2 -20 -6 -22 -13
-25 -84 l-3 -79 -188 83 c-103 46 -192 87 -198 93 -5 5 -8 55 -7 114 l3 103
195 87 195 87 5 -82 c5 -75 7 -81 28 -84 12 -2 24 3 26 10 3 7 7 84 9 170 l5
157 -146 80 c-131 71 -148 77 -160 63 -19 -24 -11 -34 56 -72 34 -19 62 -38
62 -42 0 -10 -330 -251 -344 -251 -6 0 -50 23 -98 52 -79 46 -88 55 -88 81 0
37 40 394 45 398 2 2 34 -14 72 -36 66 -39 68 -39 82 -20 11 17 11 22 0 33
-24 22 -260 165 -272 164 -7 0 -68 -36 -137 -79z"/>
<path d="M228 1867 l-227 -132 -1 -267 0 -268 50 0 50 0 0 238 0 238 205 118
c113 65 205 122 205 126 0 13 -41 80 -48 79 -4 0 -109 -60 -234 -132z"/>
<path d="M1510 1959 c-20 -37 -21 -43 -8 -53 8 -6 101 -60 207 -121 l191 -109
0 -238 0 -238 50 0 50 0 0 268 -1 267 -226 130 c-124 72 -229 131 -232 133 -4
1 -18 -16 -31 -39z"/>
<path d="M0 848 l1 -273 226 -130 c124 -72 230 -131 234 -133 4 -2 18 16 30
39 26 52 46 34 -203 177 l-187 107 -3 240 -3 240 -47 3 -48 3 0 -273z"/>
<path d="M1907 1113 c-4 -3 -7 -112 -7 -242 l0 -236 -192 -110 c-105 -60 -198
-115 -206 -121 -13 -10 -12 -16 8 -53 13 -23 27 -40 31 -39 3 2 108 61 232
133 l226 130 1 273 0 272 -43 0 c-24 0 -47 -3 -50 -7z"/>
<path d="M561 314 c-12 -19 -21 -38 -21 -42 0 -4 104 -67 230 -140 l230 -132
230 132 c127 73 230 137 230 142 0 13 -40 76 -49 76 -4 0 -96 -52 -205 -115
-109 -63 -201 -115 -205 -115 -4 0 -96 52 -205 115 -110 63 -202 115 -207 115
-4 0 -16 -16 -28 -36z"/>
</g>
</svg>
